<svg width="24" height="35" viewBox="0 0 24 35" fill="none" xmlns="http://www.w3.org/2000/svg">
<path d="M0 0H24V35H0V0Z" fill="black"/>
<path d="M2.39832 2.25623H21.9395V21.5354H2.39832V2.25623Z" fill="#FFD923"/>
<path d="M15.9099 21.6871L18.1055 13.8239L20.639 21.7544L15.9099 21.6871Z" fill="black"/>
<path d="M2.57281 23.6345H4.54889V32.8167H2.57281V23.6345ZM8.54607 31.2227H9.56507C11.9127 31.2452 12.2561 29.6231 12.2561 28.1582C12.2561 26.6934 11.9127 25.0657 9.56507 25.0938H8.54607V31.2227ZM6.57 23.5672H9.70582C12.577 23.5447 14.3617 24.9647 14.3617 28.1582C14.3617 31.3518 12.577 32.7718 9.70582 32.7493H6.57V23.5672ZM14.5475 23.6345H22.0126V25.1611H19.2653V32.8167H17.2892V25.1611H14.5475V23.6345Z" fill="white"/>
<path d="M6.82336 6.9034C6.40112 7.12229 6.114 7.58813 5.96199 8.01469C5.4159 9.50202 5.97325 11.2588 6.54186 12.6507C6.89091 13.5038 7.3413 14.312 7.80858 15.0978C8.78512 16.753 9.91609 18.3127 11.1865 19.7562C11.7269 20.368 12.2899 20.9517 12.8867 21.5073C12.9655 21.5803 13.0387 21.7037 13.1569 21.7037H13.9564C13.3124 21.1385 12.7033 20.535 12.1323 19.8965C10.8712 18.5158 9.73398 17.0004 8.86136 15.3391C8.35467 14.3737 7.8874 13.3242 7.67909 12.2466C7.48205 11.197 7.51583 9.97908 8.25897 9.14281C8.79943 8.53665 9.66643 8.19429 10.4771 8.16061C11.4567 8.11571 12.4588 8.44685 13.354 8.81167C16.0619 9.90612 18.3307 11.7807 20.4307 13.7956C20.7516 14.1043 21.0725 14.4186 21.3709 14.7498C21.5792 14.9799 21.7987 15.2156 21.9451 15.4906V14.7273C21.9451 14.6207 21.962 14.587 21.8944 14.514C21.6467 14.2615 21.399 14.0145 21.1457 13.7676C19.5186 12.168 17.8466 10.546 16.0113 9.19333C14.8515 8.34021 13.506 7.61058 12.1773 7.05494C10.5841 6.3702 8.34341 5.71914 6.82336 6.9034Z" fill="black"/>
<path d="M2.08864 2.09912C1.75648 2.26749 1.48625 2.5818 1.28358 2.89049C0.692443 3.80534 0.607995 4.95591 0.714962 6.01108C0.973935 8.57602 2.20124 10.9389 3.51299 13.111C4.4788 14.7177 5.55281 16.2572 6.72763 17.7189C7.43699 18.6001 8.18013 19.4476 8.9683 20.2558C9.37928 20.6767 9.80715 21.0921 10.2406 21.4906C10.3532 21.5972 10.3645 21.586 10.5109 21.586H11.4792C9.72833 20.0818 8.16887 18.3026 6.81208 16.4505C5.61292 14.8172 4.56014 13.0549 3.82826 11.1578C3.3835 10.0072 3.09638 8.82298 3.09075 7.5826C3.08512 6.68459 3.32158 5.80903 3.91834 5.11868C5.33143 3.46858 7.75226 3.68186 9.627 4.27118C11.9409 5.00082 14.1196 6.23558 16.045 7.70046C17.1991 8.57602 18.2688 9.56384 19.3385 10.5404C20.2899 11.4104 21.3821 12.2354 22.0014 13.3972V12.2859C22.0014 12.1119 21.855 12.0334 21.7368 11.9155C20.8473 11.0119 19.9521 10.1139 19.0345 9.24392C17.1935 7.49841 15.2512 5.8427 13.1175 4.4564C11.4342 3.36194 9.627 2.34046 7.71285 1.72307C5.91693 1.13937 3.67063 0.86435 2.08864 2.09912Z" fill="black"/>
</svg>
