<svg width="319" height="236" viewBox="0 0 319 236" fill="none" xmlns="http://www.w3.org/2000/svg">
<g opacity="0.3">
<path d="M237.131 -9.95861C244.352 3.61876 239.292 22.2023 225.027 41.3507C210.78 60.4746 187.428 80.047 158.342 95.5164C129.255 110.986 99.9727 119.406 76.1519 120.529C52.3005 121.652 34.0628 115.459 26.8418 101.882C19.6208 88.3047 24.6815 69.7211 38.9465 50.5727C53.1932 31.4489 76.545 11.8764 105.631 -3.59292C134.718 -19.0623 164.001 -27.483 187.821 -28.605C211.673 -29.7285 229.91 -23.536 237.131 -9.95861Z" stroke="#696C80" stroke-width="0.719579"/>
<path d="M62.9395 120.312C54.2804 135.572 52.0174 149.984 57.9479 161.135C72.5968 188.679 131.689 185.896 189.935 154.918C248.18 123.941 283.522 76.5006 268.873 48.9568C262.945 37.8106 249.739 31.6308 232.256 30.276" stroke="#696C80" stroke-width="0.719579"/>
<path d="M263.735 89.3646C281.19 90.7281 294.375 96.9066 300.296 108.041C314.945 135.585 279.603 183.025 221.358 214.003C163.113 244.98 104.02 247.763 89.3715 220.22C83.4183 209.026 85.7213 194.547 94.4625 179.221" stroke="#696C80" stroke-width="0.719579"/>
</g>
</svg>
