<svg width="180" height="31" viewBox="0 0 180 31" fill="none" xmlns="http://www.w3.org/2000/svg">
<path d="M21.2258 25.4178C21.2475 25.3538 21.2258 25.3111 21.1824 25.2683C20.5315 24.8626 16.9519 22.6204 15.3682 21.6168C14.8909 21.3179 14.5003 20.8908 14.2184 20.3997L11.7235 15.8726L11.5282 15.5309C11.4197 15.3388 11.398 15.1252 11.4197 14.933C11.4414 14.8262 11.4631 14.6981 11.5282 14.6127C11.6801 14.3565 11.9404 14.207 12.2658 14.207H17.1472H17.2339C17.2557 14.207 17.2991 14.207 17.3207 14.207C17.516 14.207 17.6895 14.1856 17.8414 14.1429C18.08 14.0788 18.2753 13.9935 18.4488 13.8226C18.7743 13.5023 18.9695 12.9898 18.9695 12.4132V12.3492C18.9695 12.3065 18.9695 12.2851 18.9695 12.2424C18.9695 12.0715 18.9695 11.9221 18.9695 11.794C18.9695 11.7299 18.9262 11.6871 18.8828 11.6871L10.0963 9.8721C10.0746 9.8721 10.0529 9.89345 10.0312 9.9148L6.75531 15.0184C6.62514 15.2106 6.62514 15.4668 6.73361 15.6804C7.57971 17.2606 11.5932 24.6064 11.6584 24.7559C11.7669 24.9908 11.5932 28.5142 11.5932 29.0694V29.2402C11.5932 29.3043 11.6366 29.347 11.7017 29.347H21.3126C21.3777 29.347 21.4211 29.3043 21.4211 29.2402C21.4427 29.0266 21.1173 25.7168 21.2258 25.4178Z" fill="#F5F5F5"/>
<path d="M15.6726 9.88996C15.6726 9.88996 18.6448 10.4879 19.0354 10.5732C19.057 10.5732 19.0787 10.5732 19.1004 10.5519L22.1594 5.76863C22.2028 5.68321 22.1594 5.5978 22.0726 5.57644L18.8183 4.74363C18.7533 4.72228 18.7099 4.74363 18.6665 4.8077L15.6293 9.78319C15.6075 9.8259 15.6293 9.88996 15.6726 9.88996Z" fill="#F5F5F5"/>
<path d="M20.076 11.0885C20.076 11.4942 20.0543 12.6474 20.0543 13.1812C20.0543 13.2026 20.076 13.2239 20.076 13.2239L21.2258 13.9286C21.9634 14.313 22.137 14.1421 22.3973 13.7578L25.4563 8.91042C25.478 8.86771 25.478 8.80364 25.4346 8.76094L23.3085 6.32658C23.2434 6.26252 23.135 6.26252 23.0916 6.34793L20.0977 11.0672L20.076 11.0885Z" fill="#F5F5F5"/>
<path d="M10.7906 8.88818L14.392 9.61422C14.4137 9.61422 14.4571 9.61422 14.4571 9.59286L17.5378 4.57466C17.5812 4.51061 17.5378 4.40383 17.451 4.38248L14.1534 3.48561C14.0883 3.46426 14.0449 3.48561 14.0016 3.54967L10.7473 8.80277C10.7039 8.84548 10.7256 8.88818 10.7906 8.88818Z" fill="#F5F5F5"/>
<path d="M26.0638 14.9518L25.7167 14.7382L23.9377 13.6492C23.8943 13.6278 23.7323 13.5558 23.6889 13.6198L23.2638 14.3646C23.112 14.5781 22.9142 14.7376 22.7623 14.8657C22.4586 15.122 22.3142 15.0159 21.9672 15.0159C21.6635 15.0159 21.291 15.1867 20.9222 15.0159C20.8571 14.9731 20.8471 14.9085 20.7604 14.8657L19.6663 14.1437C19.6229 14.1224 19.5578 14.1224 19.5144 14.1651C19.4276 14.2719 19.3409 14.3787 19.2541 14.464C18.9938 14.7202 18.6286 14.8878 18.2815 15.0159C17.956 15.1227 17.6491 15.1652 17.2586 15.1439L12.8212 15.1661C12.7127 15.1661 12.6231 15.401 12.6881 15.4865L12.9485 15.9776C13.2305 16.4688 13.6211 16.8958 14.0983 17.1948L22.3106 22.1695C22.3758 22.2122 22.4625 22.1908 22.4842 22.1267L26.5194 15.7633C26.7147 15.4429 26.5412 15.2508 26.3025 15.1013C26.2157 15.0372 26.1289 14.9945 26.0638 14.9518Z" fill="#036C90"/>
<path d="M24.5234 12.7309L26.6278 14.0335C26.9966 14.247 27.4739 14.1617 27.7125 13.7986L28.5804 12.5601C28.6237 12.5174 28.602 12.4533 28.5804 12.4106L26.4109 9.84813C26.3458 9.78406 26.2373 9.78406 26.1939 9.86948L24.5017 12.5601C24.4583 12.6028 24.4583 12.6882 24.5234 12.7309Z" fill="#F5F5F5"/>
<path d="M28.884 14.0351L23.1999 22.9825C23.0697 23.1747 22.8744 23.3241 22.6359 23.3669C22.5707 23.3882 22.5057 23.3882 22.4406 23.3882C22.267 23.3882 22.1151 23.3455 21.9632 23.2601L14.7389 18.7757C14.6738 18.733 14.6088 18.7971 14.6521 18.8612L15.086 19.6299C15.3681 20.1211 15.7585 20.5481 16.2359 20.847L21.8331 24.3065C22.1585 24.4987 22.5491 24.584 22.9178 24.4987C23.2866 24.4132 23.6121 24.1997 23.829 23.858L29.0792 15.6367C29.4046 15.1242 29.3612 14.4836 29.0141 14.0351C28.9707 13.9924 28.9056 13.9924 28.884 14.0351Z" fill="#F5F5F5"/>
<path d="M3.54608 11.8768C3.32914 11.7486 3.17727 11.5351 3.13388 11.3002C3.06879 11.0652 3.11219 10.809 3.26405 10.5955L8.01522 3.12157C8.1454 2.92939 8.34065 2.77991 8.57929 2.7372C8.81793 2.69449 9.05658 2.71585 9.25184 2.84396L12.0288 4.55229C12.0505 4.57364 12.0938 4.55229 12.1156 4.53094L12.5712 3.8049C12.5928 3.78354 12.5712 3.74084 12.5494 3.71949L9.382 1.79762C9.14336 1.64814 8.88302 1.58408 8.62268 1.58408C8.49251 1.58408 8.36235 1.60544 8.23218 1.62679C7.86336 1.73356 7.55964 1.98981 7.34269 2.31012L2.13592 10.4887C1.70202 11.1507 1.91897 12.0262 2.5915 12.4533L5.75896 14.4179C5.78065 14.4392 5.82405 14.4178 5.84574 14.3965L6.30133 13.6705C6.32303 13.6491 6.30133 13.6064 6.27964 13.5851L3.54608 11.8768Z" fill="#F5F5F5"/>
<path d="M11.3858 5.39113L8.947 3.95334C8.88191 3.91062 8.72299 3.88927 8.70129 3.95334L4.27482 10.8928C4.23144 10.9568 4.30429 11.1703 4.36938 11.1916L6.7992 12.6864C6.86428 12.7292 7.09234 12.5624 7.11403 12.4984L11.5205 5.59887C11.5638 5.55617 11.4509 5.41248 11.3858 5.39113ZM9.09358 7.41298L7.65142 9.68945C7.54294 9.86028 7.40666 9.97576 7.21141 9.97576C7.10294 9.97576 7.01615 9.95435 6.92937 9.89034C6.66903 9.74086 6.58225 9.39919 6.75581 9.14294L8.18767 6.85806C8.33954 6.60181 8.66624 6.55215 8.92658 6.72298C9.16523 6.87246 9.24544 7.15673 9.09358 7.41298Z" fill="#036C90"/>
<path d="M29.6431 13.0727C29.6215 13.0513 29.5998 12.9873 29.6215 12.9659L29.6431 12.9445C29.8601 12.6243 29.8384 12.2186 29.5998 11.9196L26.8879 8.73783V8.71647L24.6967 6.21805L24.1327 5.57742C23.8506 5.25711 23.5252 5.00087 23.1347 4.80868C22.8961 4.68056 22.6574 4.59514 22.3971 4.53108L18.6005 3.5915L14.1964 2.39567C13.6974 2.2462 13.4154 2.45974 13.2201 2.7587C13.1985 2.8014 13.1333 2.8014 13.09 2.78005L10.031 0.879538C9.90082 0.794121 9.74895 0.730059 9.59708 0.665997C9.20658 0.495165 8.77268 0.431103 8.33879 0.473811C8.10015 0.495165 7.8615 0.559227 7.64455 0.665997C7.16726 0.858183 6.73337 1.19985 6.45133 1.64828L4.43371 4.80868L3.54422 6.21805L1.20117 9.89094C0.441853 11.0654 0.810666 12.6243 2.00389 13.3717L5.06286 15.2508C5.23642 15.3576 5.36659 15.4857 5.45337 15.6566C6.25608 17.13 10.4431 24.9455 10.5734 25.1164C10.6602 25.2445 10.4866 28.7039 10.4866 29.0882V29.2591C10.4866 29.921 11.029 30.4549 11.7015 30.4549H21.3123C21.9849 30.4549 22.5706 29.921 22.5272 29.2591C22.3753 25.9919 21.9631 25.6076 22.7008 25.6289C22.8527 25.6289 23.0045 25.6076 23.1564 25.5648C23.8289 25.4153 24.393 25.0096 24.7618 24.4544L30.012 16.2118C30.6629 15.1867 30.4892 13.8841 29.6431 13.0727ZM26.3889 9.84824L28.5584 12.4108C28.6018 12.4534 28.6018 12.5175 28.5584 12.5602L27.6906 13.7987C27.4519 14.1618 26.9747 14.2471 26.6059 14.0336L24.5014 12.731C24.4364 12.6883 24.4147 12.6029 24.458 12.5602L26.1503 9.86959C26.237 9.78417 26.3456 9.76282 26.3889 9.84824ZM26.4974 15.7419L22.4621 22.1055C22.4187 22.1695 22.332 22.1908 22.2886 22.1481L14.1747 17.1513C13.6974 16.8523 13.2852 16.4253 13.0249 15.9341L12.7645 15.443C12.7211 15.3576 12.7863 15.2508 12.873 15.2508H17.1903C17.5808 15.2722 17.9279 15.2294 18.2751 15.1227C18.6221 15.0159 18.9476 14.8237 19.2079 14.5675C19.3164 14.4821 19.4032 14.3753 19.4682 14.2685C19.5117 14.2258 19.5551 14.2045 19.6201 14.2471L20.6615 14.8878C20.7266 14.9305 20.7916 14.9518 20.8784 14.9945C21.2472 15.1654 21.5727 15.2508 21.8764 15.2508C22.2452 15.2508 22.5706 15.1227 22.8527 14.8878C23.0262 14.7597 23.1781 14.5888 23.3083 14.3753L23.7421 13.6706C23.7639 13.6279 23.8289 13.6066 23.894 13.6279L25.673 14.717L26.0201 14.9305C26.0852 14.9732 26.172 15.0159 26.237 15.0587C26.5191 15.2295 26.6926 15.4217 26.4974 15.7419ZM23.113 6.34617C23.1564 6.26075 23.2649 6.26075 23.3299 6.32482L25.456 8.75918C25.4994 8.80188 25.4994 8.86595 25.4777 8.90866L22.4187 13.7561C22.1584 14.1404 21.9631 14.3326 21.2472 13.9269L20.0974 13.2222C20.0757 13.2008 20.0757 13.2008 20.0757 13.1795C20.0757 12.6456 20.0974 11.4925 20.0974 11.0868C20.0974 11.0654 20.0974 11.0654 20.0974 11.0654L23.113 6.34617ZM18.6873 4.80868C18.7089 4.76597 18.774 4.74462 18.8391 4.74462L22.115 5.55607C22.2018 5.57742 22.2452 5.6842 22.2018 5.74826L19.0995 10.5529C19.0777 10.5743 19.0561 10.5956 19.0344 10.5743C18.6439 10.4888 15.6716 9.89094 15.6716 9.89094C15.6283 9.89094 15.6066 9.82688 15.6283 9.78417L18.6873 4.80868ZM14.0011 3.5488C14.0229 3.50608 14.0879 3.48473 14.153 3.48473L17.4506 4.3816C17.5374 4.40295 17.5808 4.50973 17.5374 4.57379L14.4567 9.59199C14.435 9.61334 14.4134 9.63469 14.3916 9.61334L10.7903 8.88731C10.7469 8.88731 10.7252 8.82324 10.7469 8.78053L14.0011 3.5488ZM7.0154 12.5602C6.97201 12.6243 6.88523 12.6456 6.84184 12.6029L4.41202 11.1082C4.34693 11.0654 4.32524 10.98 4.36862 10.9373L8.77268 4.01859C8.81608 3.95452 8.90285 3.93317 8.94624 3.97587L11.3761 5.47065C11.4411 5.51337 11.4628 5.59878 11.4195 5.64149L7.0154 12.5602ZM6.32117 13.6492L5.86557 14.3753C5.84388 14.3966 5.80049 14.418 5.77879 14.3966L2.61134 12.4321C1.9388 12.005 1.72185 11.1295 2.15574 10.4675L7.36252 2.28891C7.55777 1.9686 7.88319 1.71234 8.25201 1.60558C8.38217 1.56286 8.51235 1.56286 8.64251 1.56286C8.90285 1.56286 9.18488 1.62693 9.40183 1.77641L12.5259 3.71963C12.5476 3.74098 12.5693 3.78369 12.5476 3.80504L12.1137 4.53108C12.092 4.55243 12.0486 4.57379 12.027 4.55243L9.24997 2.84411C9.05472 2.71598 8.81608 2.67328 8.57743 2.73734C8.33879 2.78005 8.14353 2.92953 8.01337 3.12171L3.26218 10.5956C3.13202 10.8092 3.08863 11.044 3.13202 11.3003C3.1971 11.5352 3.32727 11.7487 3.54422 11.8769L6.29947 13.5639C6.32117 13.5852 6.34286 13.6279 6.32117 13.6492ZM21.3123 29.3658H11.7015C11.6364 29.3658 11.593 29.3231 11.593 29.2591V29.0882C11.593 28.5117 11.7665 25.0096 11.6581 24.7747C11.5714 24.6039 7.57946 17.2794 6.73337 15.6992C6.62489 15.4857 6.62489 15.2508 6.75506 15.0372L10.031 9.93364C10.0527 9.91233 10.0744 9.89094 10.0961 9.89094L18.8608 11.6847C18.9042 11.6847 18.9476 11.7274 18.9476 11.7914C18.9476 11.9196 18.9476 12.0691 18.9476 12.2399C18.9476 12.2826 18.9476 12.3039 18.9476 12.3466V12.4108C18.9692 12.9659 18.774 13.4997 18.4269 13.8201C18.2751 13.9696 18.0581 14.0763 17.8195 14.1404C17.6676 14.1831 17.494 14.2045 17.2987 14.2045C17.2771 14.2045 17.2337 14.2045 17.212 14.2045H17.1252H12.2439C11.9401 14.2045 11.6581 14.3539 11.5062 14.6102C11.4411 14.717 11.4195 14.8237 11.3977 14.9305C11.3761 15.1227 11.3977 15.3362 11.5062 15.5284L11.7015 15.8701L14.1964 20.4185C14.4567 20.9097 14.869 21.3367 15.3462 21.6356C16.9517 22.6393 20.5096 24.8602 21.1604 25.2872C21.2038 25.3299 21.2256 25.3726 21.2038 25.4367C21.0737 25.757 21.3991 29.0455 21.3991 29.2804C21.4425 29.3231 21.3774 29.3658 21.3123 29.3658ZM29.0791 15.6352L23.8289 23.8778C23.6337 24.1981 23.3083 24.433 22.9177 24.5185C22.549 24.6039 22.1584 24.5398 21.833 24.3263L16.2357 20.8669C15.7584 20.568 15.3462 20.1409 15.0859 19.6497L14.652 18.881C14.6086 18.817 14.6954 18.7529 14.7388 18.7955L21.9849 23.2586C22.1368 23.344 22.2886 23.3867 22.4621 23.3867C22.5272 23.3867 22.5924 23.3867 22.6574 23.3654C22.8961 23.3226 23.0913 23.1732 23.2215 22.981L28.9055 14.0336C28.9272 13.9909 28.9923 13.9909 29.014 14.0336C29.3394 14.4821 29.4045 15.1227 29.0791 15.6352Z" fill="#272A2D"/>
<path d="M8.92556 6.68681C8.66521 6.53733 8.3181 6.60139 8.16623 6.85764L6.73437 9.14252C6.58251 9.39877 6.64759 9.74044 6.90793 9.88992C6.99471 9.95402 7.10319 9.97533 7.18997 9.97533C7.38522 9.97533 7.55877 9.88992 7.66725 9.71909L9.09912 7.4342C9.27267 7.17795 9.18589 6.83629 8.92556 6.68681Z" fill="white"/>
<path d="M32.7018 19.7297C32.7018 19.5588 32.832 18.9609 32.9622 18.4271L36.4984 2.28339C36.5852 1.89901 36.7805 1.79224 37.1927 1.79224H45.5018C49.4068 1.79224 51.2076 2.92401 51.2076 5.72138C51.2076 9.15938 48.7561 10.1417 47.0856 10.5047C46.8685 10.5687 46.7384 10.6114 46.7384 10.7182C46.7384 10.8464 46.8251 10.9318 47.1072 10.9958C48.1486 11.2094 50.2313 11.9995 50.2313 14.5833C50.2313 18.4911 46.9988 20.2207 41.9872 20.2207H33.3526C32.9188 20.2207 32.7018 20.0713 32.7018 19.7297ZM40.9025 16.6974C42.5947 16.6974 43.5059 15.8218 43.5059 14.3911C43.5059 13.0885 42.7683 12.6401 41.7919 12.6401H41.1194C40.8591 12.6401 40.7506 12.7041 40.7072 13.0031L40.0998 15.8005C40.0347 16.0781 39.9913 16.2916 39.9913 16.4411C39.9913 16.6119 40.0781 16.6974 40.3601 16.6974H40.9025ZM42.6164 8.98855C43.9832 8.98855 44.8076 8.13439 44.8076 6.74637C44.8076 5.50785 44.1133 5.31565 43.2672 5.31565H42.855C42.5079 5.31565 42.3777 5.48649 42.2909 5.84951L41.8353 7.81408C41.7269 8.26252 41.6618 8.54011 41.6618 8.68959C41.6618 8.88178 41.7703 8.98855 42.1391 8.98855H42.6164Z" fill="white"/>
<path d="M51.339 13.5374C51.339 6.76821 55.2224 1.36563 63.0108 1.36563C68.0658 1.36563 70.9729 3.73593 70.9729 8.5833C70.9729 14.9682 67.4366 20.6483 59.518 20.6483C54.5716 20.6483 51.339 18.4061 51.339 13.5374ZM64.0305 8.73278C64.0305 7.64372 63.7702 6.17029 62.2299 6.17029C59.6699 6.17029 58.4332 10.2276 58.4332 13.1958C58.4332 14.4983 58.7153 15.8437 60.2122 15.8437C62.859 15.8223 64.0305 11.7437 64.0305 8.73278Z" fill="white"/>
<path d="M70.9284 19.9436C70.2558 19.7301 69.887 19.5592 69.887 19.004C69.887 18.513 70.4728 16.0359 70.5812 15.5661C70.6897 15.1177 70.8633 14.9682 71.167 14.9682C71.7527 14.9682 73.1846 16.2708 75.6362 16.2708C77.068 16.2708 77.6103 15.8223 77.6103 15.0322C77.6103 14.0713 76.8511 13.7296 75.4843 12.79L75.007 12.427C73.2063 11.1245 72.1215 9.90725 72.1215 7.38747C72.1215 3.39427 74.9636 1.36563 80.2788 1.36563C82.188 1.36563 84.3792 1.64323 85.7026 2.2198C86.2016 2.43333 86.3101 2.62552 86.3101 3.07395C86.3101 3.43697 85.7676 5.72185 85.529 6.51195C85.4423 6.78956 85.3555 7.04581 84.9433 7.04581C84.2056 7.04581 82.9474 5.76457 80.691 5.76457C79.6497 5.76457 78.9555 5.95675 78.9555 6.68278C78.9555 7.55831 80.0619 8.00674 81.4504 9.03173L82.1012 9.52288C83.8368 10.8041 84.5961 12.0854 84.5961 14.3061C84.5961 18.3635 82.0362 20.6483 75.8097 20.6483C73.5968 20.6483 72.2301 20.3708 70.9284 19.9436Z" fill="white"/>
<path d="M86.0287 19.9436C85.3562 19.7301 84.9874 19.5592 84.9874 19.004C84.9874 18.513 85.5731 16.0359 85.6815 15.5661C85.7901 15.1177 85.9636 14.9682 86.2673 14.9682C86.8531 14.9682 88.285 16.2708 90.7365 16.2708C92.1683 16.2708 92.7107 15.8223 92.7107 15.0322C92.7107 14.0713 91.9514 13.7296 90.5846 12.79L90.1074 12.427C88.3066 11.1245 87.2219 9.90725 87.2219 7.38747C87.2219 3.39427 90.064 1.36563 95.3791 1.36563C97.2885 1.36563 99.4798 1.64323 100.803 2.2198C101.302 2.43333 101.41 2.62552 101.41 3.07395C101.41 3.43697 100.868 5.72185 100.63 6.51195C100.542 6.78956 100.456 7.04581 100.043 7.04581C99.3064 7.04581 98.0474 5.76457 95.7913 5.76457C94.75 5.76457 94.0558 5.95675 94.0558 6.68278C94.0558 7.55831 95.1622 8.00674 96.5507 9.03173L97.2013 9.52288C98.9375 10.8041 99.6963 12.0854 99.6963 14.3061C99.6963 18.3635 97.1362 20.6483 90.91 20.6483C88.7188 20.6483 87.3521 20.3708 86.0287 19.9436Z" fill="white"/>
<path d="M33.7443 29.1922V22.7219C33.7443 22.5938 33.7877 22.5297 33.9179 22.5297H36.543C38.4305 22.5297 39.1898 22.9996 39.1898 24.5584C39.1898 25.4339 38.7125 26.1172 38.0616 26.3521C37.9749 26.3735 37.9315 26.4162 37.9315 26.4589C37.9315 26.4802 37.9315 26.5016 37.9749 26.5657L39.4718 29.0427C39.5586 29.1495 39.5586 29.2136 39.5586 29.2563C39.5586 29.3203 39.5152 29.363 39.4284 29.363H37.5627C37.4325 29.363 37.3457 29.3203 37.3023 29.2136L36.044 26.8859C36.0006 26.8219 35.9789 26.7792 35.8922 26.7792H35.827C35.762 26.7792 35.7403 26.8006 35.7403 26.8646V29.1708C35.7403 29.299 35.6752 29.3416 35.5451 29.3416H33.9396C33.7877 29.363 33.7443 29.299 33.7443 29.1922ZM36.261 25.5193C36.7816 25.5193 37.1504 25.2631 37.1504 24.5797C37.1504 23.9818 36.8901 23.6828 36.2393 23.6828H35.8922C35.8054 23.6828 35.762 23.7256 35.762 23.8323V25.3911C35.762 25.4766 35.8054 25.5193 35.8704 25.5193H36.261Z" fill="white"/>
<path d="M40.7504 29.1922V22.7219C40.7504 22.5724 40.7938 22.5297 40.9457 22.5297H45.2413C45.3714 22.5297 45.4582 22.5724 45.4582 22.7219V23.7896C45.4582 23.9391 45.3932 23.9818 45.2413 23.9818H42.9199C42.8549 23.9818 42.8115 24.0245 42.8115 24.11V25.0496C42.8115 25.1136 42.8549 25.1563 42.9199 25.1563H44.7206C44.8508 25.1563 44.9158 25.199 44.9158 25.3271V26.3948C44.9158 26.5229 44.8508 26.5657 44.7206 26.5657H42.9199C42.8549 26.5657 42.8115 26.6084 42.8115 26.6937V27.7615C42.8115 27.8683 42.8549 27.911 42.9416 27.911H45.4799C45.6318 27.911 45.6535 27.975 45.6535 28.1032V29.1922C45.6535 29.3203 45.6318 29.363 45.4799 29.363H40.9457C40.8156 29.363 40.7504 29.299 40.7504 29.1922Z" fill="white"/>
<path d="M48.6251 28.9786L46.6726 22.8287C46.6508 22.7646 46.6508 22.7006 46.6508 22.6579C46.6508 22.5724 46.6942 22.5297 46.8244 22.5297H48.5383C48.6251 22.5297 48.7119 22.5511 48.7335 22.6579L50.0135 27.548C50.0353 27.6547 50.0569 27.6974 50.122 27.6974C50.1871 27.6974 50.2088 27.6761 50.2522 27.548L51.5973 22.6792C51.619 22.5938 51.6624 22.5297 51.7925 22.5297H53.3329C53.4196 22.5297 53.463 22.5938 53.463 22.6579C53.463 22.7219 53.4413 22.8074 53.4196 22.8501L51.402 28.9573C51.3152 29.2349 51.2284 29.3416 50.9464 29.3416H49.0589C48.842 29.363 48.7335 29.299 48.6251 28.9786Z" fill="white"/>
<path d="M53.8768 25.9644C53.8768 23.8931 54.9832 22.3556 57.4565 22.3556C59.7995 22.3556 61.0361 23.7863 61.0361 25.9431C61.0361 27.9931 59.908 29.4879 57.4565 29.4879C55.0917 29.5092 53.8768 28.0998 53.8768 25.9644ZM58.8883 25.9644C58.8883 24.4696 58.3893 23.8077 57.4347 23.8077C56.5019 23.8077 55.9811 24.4483 55.9811 25.9858C55.9811 27.3952 56.4585 28.0785 57.4131 28.0785C58.3893 28.0785 58.8883 27.3952 58.8883 25.9644Z" fill="white"/>
<path d="M62.1648 29.1447V22.6958C62.1648 22.589 62.2082 22.5036 62.3601 22.5036H64.0739C64.2041 22.5036 64.2475 22.5676 64.2475 22.6958V27.7567C64.2475 27.8634 64.2909 27.8849 64.3994 27.8849H66.3736C66.5037 27.8849 66.5471 27.9489 66.5471 28.077V29.1447C66.5471 29.2515 66.5037 29.3155 66.3736 29.3155H62.3601C62.2299 29.3582 62.1648 29.2942 62.1648 29.1447Z" fill="white"/>
<path d="M67.4362 26.8432V22.7219C67.4362 22.6152 67.4795 22.5297 67.6314 22.5297H69.3019C69.4321 22.5297 69.4755 22.6152 69.4755 22.7219V26.5657C69.4755 27.4411 69.7358 27.9963 70.6904 27.9963C71.6016 27.9963 71.8619 27.4839 71.8619 26.6511V22.7432C71.8619 22.6365 71.9054 22.5511 72.0355 22.5511H73.5107C73.6409 22.5511 73.6843 22.6365 73.6843 22.7432V26.8432C73.6843 28.7011 72.708 29.5552 70.4952 29.5552C68.3691 29.5125 67.4362 28.7011 67.4362 26.8432Z" fill="white"/>
<path d="M76.591 29.1874V24.1265C76.591 24.0411 76.5476 23.9984 76.4826 23.9984H74.9423C74.8121 23.9984 74.747 23.9344 74.747 23.8062V22.6958C74.747 22.5676 74.7904 22.5036 74.9423 22.5036H80.3443C80.4745 22.5036 80.5395 22.5676 80.5395 22.6958V23.8062C80.5395 23.9344 80.4961 23.9984 80.3443 23.9984H78.804C78.7172 23.9984 78.6737 24.0411 78.6737 24.1265V29.1874C78.6737 29.3155 78.6087 29.3582 78.5002 29.3582H76.7863C76.6561 29.3582 76.591 29.2942 76.591 29.1874Z" fill="white"/>
<path d="M81.6008 29.1922V22.7219C81.6008 22.5938 81.6659 22.5297 81.796 22.5297H83.4883C83.6184 22.5297 83.6836 22.5938 83.6836 22.7219V29.1922C83.6836 29.3203 83.5968 29.363 83.4883 29.363H81.796C81.6659 29.363 81.6008 29.299 81.6008 29.1922Z" fill="white"/>
<path d="M84.8132 25.9644C84.8132 23.8931 85.9197 22.3556 88.3929 22.3556C90.736 22.3556 91.9725 23.7863 91.9725 25.9431C91.9725 27.9931 90.8444 29.4879 88.3929 29.4879C86.0499 29.5092 84.8132 28.0998 84.8132 25.9644ZM89.8464 25.9644C89.8464 24.4696 89.3475 23.8077 88.3929 23.8077C87.46 23.8077 86.9393 24.4483 86.9393 25.9858C86.9393 27.3952 87.4166 28.0785 88.3712 28.0785C89.3474 28.0785 89.8464 27.3952 89.8464 25.9644Z" fill="white"/>
<path d="M93.1013 29.1922V22.7432C93.1013 22.6152 93.1447 22.5297 93.2965 22.5297H95.6612C95.8565 22.5297 95.9216 22.5938 95.965 22.7006L97.6784 27.0568C97.7004 27.1209 97.7225 27.1422 97.7656 27.1422C97.8307 27.1422 97.8307 27.0995 97.8307 27.0354V22.7432C97.8307 22.5938 97.8739 22.5297 98.0262 22.5297H99.2191C99.3494 22.5297 99.4145 22.5938 99.4145 22.7432V29.0854C99.4145 29.299 99.3714 29.3416 99.1539 29.3416H97.093C96.7672 29.3416 96.6589 29.299 96.5074 28.9146L94.8368 24.9001C94.8152 24.8359 94.7934 24.8146 94.75 24.8146C94.7066 24.8146 94.685 24.836 94.685 24.9214V29.1708C94.685 29.299 94.6416 29.3416 94.4897 29.3416H93.2748C93.1663 29.3631 93.1013 29.299 93.1013 29.1922Z" fill="white"/>
<path d="M117.844 12.8466V3.86423H123.896V5.43H119.743V7.57033H123.585V9.13611H119.743V11.2808H123.914V12.8466H117.844Z" fill="white"/>
<path d="M172.917 12.8466V3.86423H176.461C177.139 3.86423 177.718 3.98557 178.198 4.22826C178.68 4.46802 179.047 4.80866 179.299 5.25018C179.553 5.68877 179.68 6.20485 179.68 6.79841C179.68 7.3949 179.552 7.90805 179.294 8.33787C179.037 8.76477 178.664 9.09225 178.176 9.32032C177.69 9.54839 177.103 9.66242 176.413 9.66242H174.04V8.13612H176.106C176.468 8.13612 176.769 8.08641 177.009 7.987C177.249 7.88758 177.427 7.73846 177.544 7.53963C177.664 7.3408 177.724 7.09373 177.724 6.79841C177.724 6.50017 177.664 6.24871 177.544 6.04403C177.427 5.83936 177.247 5.68439 177.005 5.57912C176.765 5.47094 176.462 5.41684 176.097 5.41684H174.816V12.8466H172.917ZM177.768 8.75892L180 12.8466H177.904L175.72 8.75892H177.768Z" fill="white"/>
<path d="M164.159 12.8466V3.86423H170.212V5.43H166.058V7.57033H169.9V9.13611H166.058V11.2808H170.229V12.8466H164.159Z" fill="white"/>
<path d="M155.057 12.8466V3.86423H156.956V11.2808H160.807V12.8466H155.057Z" fill="white"/>
<path d="M149.617 3.86423V12.8466H147.718V3.86423H149.617Z" fill="white"/>
<path d="M137.325 12.8466H135.29L138.391 3.86423H140.838L143.935 12.8466H141.9L139.65 5.91684H139.58L137.325 12.8466ZM137.198 9.31593H142.005V10.7984H137.198V9.31593Z" fill="white"/>
<path d="M126.454 5.43V3.86423H133.831V5.43H131.081V12.8466H129.204V5.43H126.454Z" fill="white"/>
<path d="M108.075 12.8466V3.86423H111.619C112.298 3.86423 112.877 3.98557 113.356 4.22826C113.839 4.46802 114.206 4.80866 114.457 5.25018C114.711 5.68877 114.839 6.20485 114.839 6.79841C114.839 7.3949 114.71 7.90805 114.453 8.33787C114.195 8.76477 113.822 9.09225 113.334 9.32032C112.849 9.54839 112.261 9.66242 111.571 9.66242H109.198V8.13612H111.264C111.627 8.13612 111.928 8.08641 112.168 7.987C112.407 7.88758 112.586 7.73846 112.703 7.53963C112.822 7.3408 112.882 7.09373 112.882 6.79841C112.882 6.50017 112.822 6.24871 112.703 6.04403C112.586 5.83936 112.406 5.68439 112.163 5.57912C111.923 5.47094 111.621 5.41684 111.255 5.41684H109.975V12.8466H108.075ZM112.926 8.75892L115.159 12.8466H113.062L110.878 8.75892H112.926Z" fill="white"/>
<path d="M155.218 27.3855V18.4031H156.573V26.2188H160.643V27.3855H155.218Z" fill="white"/>
<path d="M167.193 27.3873C166.591 27.3873 166.053 27.2835 165.579 27.0759C165.108 26.8683 164.735 26.5803 164.46 26.2119C164.189 25.8406 164.042 25.4108 164.022 24.9225H165.399C165.417 25.1885 165.506 25.4195 165.667 25.6154C165.83 25.8084 166.044 25.9575 166.307 26.0628C166.57 26.1681 166.862 26.2207 167.184 26.2207C167.538 26.2207 167.851 26.1593 168.123 26.0365C168.398 25.9137 168.612 25.7426 168.767 25.5233C168.922 25.3011 169 25.0453 169 24.7558C169 24.4546 168.922 24.19 168.767 23.9619C168.615 23.7309 168.392 23.5497 168.096 23.4181C167.804 23.2865 167.45 23.2207 167.035 23.2207H166.276V22.1155H167.035C167.368 22.1155 167.661 22.0555 167.912 21.9356C168.167 21.8158 168.365 21.6491 168.509 21.4356C168.652 21.2193 168.724 20.9664 168.724 20.6769C168.724 20.3991 168.661 20.1579 168.535 19.9532C168.412 19.7456 168.237 19.5833 168.009 19.4664C167.784 19.3494 167.517 19.2909 167.21 19.2909C166.918 19.2909 166.645 19.345 166.39 19.4532C166.139 19.5585 165.934 19.7105 165.776 19.9093C165.618 20.1053 165.534 20.3406 165.522 20.6155H164.21C164.225 20.1301 164.368 19.7032 164.64 19.3348C164.915 18.9664 165.278 18.6784 165.728 18.4708C166.178 18.2632 166.678 18.1594 167.228 18.1594C167.804 18.1594 168.301 18.2719 168.719 18.4971C169.14 18.7193 169.465 19.0161 169.693 19.3874C169.924 19.7588 170.038 20.1652 170.035 20.6067C170.038 21.1096 169.898 21.5365 169.614 21.8874C169.333 22.2383 168.959 22.4737 168.491 22.5935V22.6637C169.088 22.7544 169.55 22.9912 169.877 23.3742C170.207 23.7573 170.371 24.2324 170.368 24.7997C170.371 25.2938 170.234 25.7368 169.956 26.1286C169.681 26.5204 169.305 26.8289 168.829 27.054C168.352 27.2762 167.807 27.3873 167.193 27.3873Z" fill="white"/>
<path d="M176.459 27.3875C175.766 27.3846 175.174 27.2019 174.683 26.8393C174.192 26.4767 173.816 25.949 173.556 25.256C173.295 24.563 173.165 23.7282 173.165 22.7516C173.165 21.7779 173.295 20.9461 173.556 20.256C173.819 19.566 174.196 19.0397 174.687 18.6771C175.181 18.3145 175.772 18.1332 176.459 18.1332C177.146 18.1332 177.735 18.316 178.227 18.6815C178.718 19.0441 179.094 19.5704 179.354 20.2604C179.617 20.9475 179.748 21.7779 179.748 22.7516C179.748 23.7311 179.618 24.5674 179.358 25.2604C179.098 25.9504 178.722 26.4782 178.231 26.8437C177.74 27.2063 177.149 27.3875 176.459 27.3875ZM176.459 26.2165C177.067 26.2165 177.542 25.9197 177.884 25.3262C178.23 24.7326 178.402 23.8744 178.402 22.7516C178.402 22.006 178.323 21.3759 178.165 20.8613C178.01 20.3437 177.787 19.9519 177.494 19.6859C177.205 19.4169 176.86 19.2824 176.459 19.2824C175.854 19.2824 175.379 19.5806 175.034 20.1771C174.689 20.7736 174.515 21.6317 174.512 22.7516C174.512 23.5001 174.589 24.1332 174.744 24.6507C174.902 25.1653 175.126 25.5557 175.415 25.8218C175.705 26.0849 176.053 26.2165 176.459 26.2165Z" fill="white"/>
<path d="M172.044 27.3877C171.805 27.3877 171.599 27.3029 171.426 27.1333C171.253 26.9608 171.167 26.7532 171.167 26.5105C171.167 26.2708 171.253 26.0661 171.426 25.8965C171.599 25.724 171.805 25.6377 172.044 25.6377C172.284 25.6377 172.49 25.724 172.663 25.8965C172.835 26.0661 172.922 26.2708 172.922 26.5105C172.922 26.6713 172.881 26.819 172.799 26.9535C172.72 27.0851 172.615 27.1903 172.483 27.2693C172.351 27.3482 172.205 27.3877 172.044 27.3877Z" fill="white"/>
<path d="M108.461 27.3855V18.4031H111.662C112.361 18.4031 112.94 18.5303 113.399 18.7847C113.858 19.0391 114.202 19.387 114.43 19.8285C114.658 20.2671 114.772 20.7613 114.772 21.311C114.772 21.8636 114.657 22.3607 114.426 22.8022C114.197 23.2408 113.852 23.5887 113.39 23.846C112.931 24.1004 112.354 24.2276 111.658 24.2276H109.456V23.0785H111.535C111.977 23.0785 112.335 23.0025 112.61 22.8504C112.885 22.6955 113.086 22.4849 113.215 22.2189C113.344 21.9528 113.408 21.6502 113.408 21.311C113.408 20.9718 113.344 20.6706 113.215 20.4075C113.086 20.1443 112.883 19.9382 112.605 19.7891C112.331 19.6399 111.968 19.5654 111.518 19.5654H109.816V27.3855H108.461Z" fill="white"/>
<path d="M124.926 22.7734C124.926 23.7324 124.75 24.557 124.399 25.247C124.048 25.9341 123.567 26.4634 122.956 26.8347C122.348 27.2031 121.657 27.3873 120.882 27.3873C120.104 27.3873 119.41 27.2031 118.799 26.8347C118.19 26.4634 117.711 25.9327 117.36 25.2426C117.009 24.5526 116.834 23.7295 116.834 22.7734C116.834 21.8143 117.009 20.9912 117.36 20.3041C117.711 19.614 118.19 19.0848 118.799 18.7164C119.41 18.345 120.104 18.1594 120.882 18.1594C121.657 18.1594 122.348 18.345 122.956 18.7164C123.567 19.0848 124.048 19.614 124.399 20.3041C124.75 20.9912 124.926 21.8143 124.926 22.7734ZM123.584 22.7734C123.584 22.0424 123.465 21.4269 123.228 20.9269C122.994 20.424 122.673 20.0438 122.263 19.7865C121.857 19.5263 121.396 19.3962 120.882 19.3962C120.364 19.3962 119.902 19.5263 119.496 19.7865C119.089 20.0438 118.768 20.424 118.531 20.9269C118.297 21.4269 118.18 22.0424 118.18 22.7734C118.18 23.5043 118.297 24.1213 118.531 24.6242C118.768 25.1242 119.089 25.5043 119.496 25.7646C119.902 26.0219 120.364 26.1505 120.882 26.1505C121.396 26.1505 121.857 26.0219 122.263 25.7646C122.673 25.5043 122.994 25.1242 123.228 24.6242C123.465 24.1213 123.584 23.5043 123.584 22.7734Z" fill="white"/>
<path d="M126.815 27.3855V18.4031H130.017C130.713 18.4031 131.29 18.523 131.749 18.7628C132.211 19.0025 132.556 19.3344 132.784 19.7584C133.012 20.1794 133.126 20.6662 133.126 21.2189C133.126 21.7686 133.011 22.2525 132.78 22.6706C132.552 23.0858 132.207 23.4089 131.745 23.6399C131.286 23.8709 130.708 23.9864 130.012 23.9864H127.587V22.8197H129.889C130.328 22.8197 130.685 22.7569 130.96 22.6311C131.237 22.5054 131.441 22.3227 131.569 22.0829C131.698 21.8431 131.762 21.5551 131.762 21.2189C131.762 20.8797 131.696 20.5858 131.565 20.3373C131.436 20.0888 131.233 19.8987 130.955 19.7671C130.68 19.6326 130.319 19.5654 129.872 19.5654H128.17V27.3855H126.815ZM131.249 23.3329L133.468 27.3855H131.925L129.749 23.3329H131.249Z" fill="white"/>
<path d="M135.93 19.5698V18.4031H142.882V19.5698H140.079V27.3855H138.728V19.5698H135.93Z" fill="white"/>
<path d="M146.092 27.3855H144.653L147.886 18.4031H149.452L152.684 27.3855H151.245L148.706 20.0347H148.636L146.092 27.3855ZM146.333 23.868H151V25.0083H146.333V23.868Z" fill="white"/>
</svg>
