      <svg width="121.75px" height="37px" view-box="0 0 121.75 37" version="1.1" xmlns-xlink="http://www.w3.org/1999/xlink" xmlns="http://www.w3.org/2000/svg" style="">
        <g id="BR_Logo_Generic_Horiz" transform="translate(0.5 0.5)">
          <path d="M9.74554 7.47362C9.43306 7.2942 9.01644 7.3711 8.83416 7.67865L7.11558 10.4211C6.9333 10.7286 7.01142 11.1387 7.32389 11.3181C7.42805 11.3951 7.55825 11.4206 7.6624 11.4206C7.89675 11.4206 8.10506 11.3181 8.23526 11.1131L9.95385 8.37066C10.1622 8.0631 10.058 7.65303 9.74554 7.47362L9.74554 7.47362Z" id="Shape" fill="#2A2825" stroke="none" class="DxJlESHt_0"></path>
          <path d="M34.6122 15.1371C34.5862 15.1114 34.5603 15.0346 34.5862 15.009L34.6122 14.9833C34.8727 14.5989 34.8466 14.1119 34.5603 13.7531L31.3053 9.93421L31.3053 9.90857L28.6754 6.90986L27.9984 6.14095C27.6598 5.7565 27.2693 5.44895 26.8005 5.21828C26.5142 5.0645 26.2277 4.96198 25.9152 4.88508L21.3584 3.75736L16.0724 2.32208C15.4735 2.14267 15.135 2.39897 14.9007 2.7578C14.8747 2.80905 14.7965 2.80905 14.7445 2.78342L11.0729 0.502349C10.9167 0.399828 10.7344 0.322938 10.5521 0.246048C10.0834 0.041008 9.56265 -0.035882 9.04187 0.015378C8.75544 0.041008 8.46901 0.117898 8.20862 0.246048C7.63576 0.476718 7.11498 0.886799 6.77647 1.42502L4.35483 5.21828L3.28723 6.90986L0.475001 11.3182C-0.436368 12.7279 0.00629664 14.5989 1.43845 15.4959L5.10997 17.7513C5.31828 17.8796 5.47452 18.0333 5.57867 18.2384C6.54212 20.0068 11.5676 29.3874 11.7239 29.5925C11.8281 29.7462 11.6197 33.8983 11.6197 34.3596L11.6197 34.5647C11.6197 35.3592 12.2707 36 13.0779 36L24.6132 36C25.4205 36 26.1235 35.3592 26.0714 34.5647C25.8891 30.6432 25.3944 30.182 26.2798 30.2076C26.4621 30.2076 26.6443 30.182 26.8266 30.1307C27.6338 29.9513 28.3108 29.4643 28.7534 28.798L35.055 18.9048C35.8362 17.6745 35.6278 16.111 34.6122 15.1371L34.6122 15.1371ZM30.7064 11.267L33.3103 14.3426C33.3624 14.3938 33.3624 14.4707 33.3103 14.522L32.2688 16.0085C31.9823 16.4443 31.4095 16.5467 30.9669 16.2904L28.441 14.727C28.3629 14.6757 28.3369 14.5732 28.3889 14.522L30.42 11.2926C30.5241 11.1901 30.6544 11.1644 30.7064 11.267L30.7064 11.267ZM30.8367 18.3408L25.9933 25.9787C25.9412 26.0555 25.8372 26.0811 25.7851 26.0298L16.0464 20.0324C15.4735 19.6736 14.9787 19.161 14.6663 18.5715L14.3538 17.982C14.3017 17.8796 14.3799 17.7513 14.484 17.7513L19.6658 17.7513C20.1345 17.777 20.5512 17.7257 20.9678 17.5976C21.3844 17.4695 21.775 17.2388 22.0875 16.9312C22.2177 16.8287 22.3218 16.7005 22.3999 16.5724C22.452 16.5211 22.5041 16.4955 22.5822 16.5467L23.8321 17.3156C23.9102 17.3669 23.9883 17.3925 24.0925 17.4438C24.5351 17.6489 24.9258 17.7513 25.2903 17.7513C25.733 17.7513 26.1235 17.5976 26.4621 17.3156C26.6703 17.1619 26.8526 16.9568 27.0089 16.7005L27.5296 15.8548C27.5557 15.8035 27.6338 15.7779 27.7119 15.8035L29.8471 17.1106L30.2637 17.3669C30.3418 17.4182 30.446 17.4695 30.5241 17.5207C30.8627 17.7257 31.0709 17.9564 30.8367 18.3408L30.8367 18.3408ZM26.7745 7.06364C26.8266 6.96112 26.9568 6.96112 27.0349 7.03801L29.5867 9.95983C29.6388 10.0111 29.6388 10.088 29.6127 10.1392L25.9412 15.9573C25.6288 16.4186 25.3944 16.6493 24.5351 16.1623L23.155 15.3165C23.129 15.2908 23.129 15.2908 23.129 15.2652C23.129 14.6245 23.155 13.2404 23.155 12.7535C23.155 12.7279 23.155 12.7279 23.155 12.7279L26.7745 7.06364L26.7745 7.06364ZM21.4626 5.21828C21.4886 5.16701 21.5666 5.14139 21.6448 5.14139L25.5767 6.11532C25.6809 6.14095 25.733 6.26911 25.6809 6.346L21.9573 12.1127C21.9312 12.1384 21.9052 12.164 21.8792 12.1384C21.4105 12.0358 17.8431 11.3182 17.8431 11.3182C17.7911 11.3182 17.765 11.2413 17.7911 11.1901L21.4626 5.21828L21.4626 5.21828ZM15.838 3.70611C15.8641 3.65484 15.9422 3.62922 16.0203 3.62922L19.9783 4.70567C20.0824 4.7313 20.1345 4.85946 20.0824 4.93635L16.3849 10.9594C16.3589 10.985 16.3329 11.0107 16.3068 10.985L11.9843 10.1136C11.9322 10.1136 11.9062 10.0367 11.9322 9.98546L15.838 3.70611L15.838 3.70611ZM7.45348 14.522C7.40141 14.5989 7.29726 14.6245 7.24517 14.5732L4.32879 12.7792C4.25068 12.7279 4.22464 12.6254 4.27671 12.5741L9.56265 4.26997C9.61473 4.19308 9.71889 4.16745 9.77096 4.2187L12.6874 6.01281C12.7655 6.06407 12.7914 6.16659 12.7395 6.21784L7.45348 14.522L7.45348 14.522ZM6.62024 15.8291L6.07341 16.7005C6.04738 16.7261 5.99529 16.7518 5.96926 16.7261L2.16754 14.3682C1.36033 13.8557 1.09994 12.8048 1.62072 12.0103L7.87012 2.19394C8.10446 1.80949 8.49505 1.50192 8.93772 1.37377C9.09395 1.32251 9.25018 1.32251 9.40641 1.32251C9.71889 1.32251 10.0574 1.3994 10.3178 1.57881L14.0674 3.91115C14.0935 3.93677 14.1195 3.98804 14.0935 4.01367L13.5726 4.88508C13.5467 4.91071 13.4946 4.93635 13.4686 4.91071L10.1355 2.86032C9.90117 2.70653 9.61473 2.65528 9.3283 2.73216C9.04187 2.78342 8.80752 2.96283 8.65129 3.1935L2.94871 12.164C2.79249 12.4204 2.7404 12.7022 2.79249 13.0098C2.87059 13.2917 3.02683 13.548 3.28723 13.7018L6.59419 15.7266C6.62024 15.7522 6.64627 15.8035 6.62024 15.8291L6.62024 15.8291ZM24.6132 34.6928L13.0779 34.6928C12.9998 34.6928 12.9477 34.6416 12.9477 34.5647L12.9477 34.3596C12.9477 33.6677 13.156 29.4643 13.0258 29.1824C12.9217 28.9774 8.1305 20.1862 7.11498 18.2895C6.98478 18.0333 6.98478 17.7513 7.14102 17.495L11.0729 11.3695C11.099 11.3439 11.125 11.3182 11.151 11.3182L21.6708 13.4711C21.7229 13.4711 21.775 13.5224 21.775 13.5993C21.775 13.7531 21.775 13.9325 21.775 14.1375C21.775 14.1888 21.775 14.2144 21.775 14.2656L21.775 14.3426C21.801 15.009 21.5666 15.6497 21.1501 16.0342C20.9678 16.2136 20.7074 16.3417 20.421 16.4186C20.2387 16.4699 20.0304 16.4955 19.796 16.4955C19.77 16.4955 19.7179 16.4955 19.6919 16.4955L19.5877 16.4955L13.7289 16.4955C13.3644 16.4955 13.0258 16.6748 12.8435 16.9825C12.7655 17.1106 12.7395 17.2388 12.7134 17.3669C12.6874 17.5976 12.7134 17.8539 12.8435 18.0846L13.0779 18.4947L16.0724 23.9539C16.3849 24.5434 16.8797 25.0559 17.4525 25.4147C19.3795 26.6193 23.6499 29.2849 24.4309 29.7975C24.483 29.8487 24.5091 29.9 24.483 29.9769C24.3269 30.3614 24.7174 34.3083 24.7174 34.5903C24.7695 34.6416 24.6914 34.6928 24.6132 34.6928L24.6132 34.6928ZM33.9352 18.2127L27.6338 28.1059C27.3994 28.4903 27.0089 28.7723 26.5402 28.8748C26.0975 28.9774 25.6288 28.9004 25.2382 28.6441L18.5201 24.4921C17.9472 24.1333 17.4525 23.6206 17.1401 23.0311L16.6192 22.1085C16.5671 22.0316 16.6713 21.9547 16.7234 22.0059L25.4205 27.3627C25.6028 27.4651 25.7851 27.5164 25.9933 27.5164C26.0714 27.5164 26.1496 27.5164 26.2277 27.4908C26.5142 27.4395 26.7484 27.2601 26.9047 27.0294L33.727 16.2904C33.753 16.2392 33.8312 16.2392 33.8571 16.2904C34.2477 16.8287 34.3259 17.5976 33.9352 18.2127L33.9352 18.2127Z" id="Shape" fill="#000000" fillrule="evenodd" stroke="#FFFFFF" stroke-linejoin="round" stroke-linecap="round" stroke-miterlimit="0" stroke-dasharray="100" stroke-dashoffset="100" stroke-width="1" class="DxJlESHt_1"></path>
          <path d="M12.6981 5.91772L9.77094 4.19202C9.69282 4.14076 9.50207 4.11513 9.47603 4.19202L4.16319 12.5211C4.11112 12.5979 4.19856 12.8542 4.27668 12.8798L7.19305 14.6739C7.27117 14.7251 7.54489 14.525 7.57093 14.4482L12.8598 6.16707C12.9118 6.11581 12.7762 5.94335 12.6981 5.91772L12.6981 5.91772ZM9.94686 8.34444L8.21593 11.0767C8.08572 11.2818 7.92215 11.4204 7.6878 11.4204C7.55761 11.4204 7.45345 11.3947 7.34929 11.3179C7.03682 11.1385 6.93267 10.7284 7.14098 10.4208L8.85956 7.6784C9.04184 7.37084 9.43395 7.31124 9.74643 7.51627C10.0329 7.69569 10.1291 8.03688 9.94686 8.34444L9.94686 8.34444Z" id="Shape" fill="#036C90" fillrule="evenodd" stroke="none" class="DxJlESHt_2"></path>
          <path d="M3.28808 13.7015C3.0277 13.5476 2.84542 13.2914 2.79334 13.0094C2.71522 12.7274 2.7673 12.4199 2.94958 12.1636L8.65214 3.19312C8.80838 2.96245 9.04272 2.78304 9.32915 2.73177C9.61559 2.68052 9.90202 2.70615 10.1364 2.85992L13.4694 4.91033C13.4955 4.93595 13.5474 4.91033 13.5736 4.8847L14.1204 4.01328C14.1464 3.98764 14.1204 3.93639 14.0943 3.91076L10.2926 1.60405C10.0062 1.42464 9.69371 1.34775 9.38124 1.34775C9.225 1.34775 9.06877 1.37339 8.91253 1.39901C8.46986 1.52716 8.10533 1.83473 7.84493 2.21918L1.59554 12.0355C1.07476 12.83 1.33515 13.8809 2.14236 14.3934L5.94407 16.7515C5.97011 16.777 6.02219 16.7514 6.04823 16.7258L6.59505 15.8544C6.62109 15.8287 6.59505 15.7774 6.56902 15.7519L3.28808 13.7015L3.28808 13.7015Z" id="Shape" fill="#FFFFFF" stroke="none" class="DxJlESHt_3"></path>
          <path d="M33.7003 16.2909L26.8781 27.0299C26.7218 27.2606 26.4874 27.44 26.201 27.4913C26.1228 27.5168 26.0448 27.5168 25.9667 27.5168C25.7583 27.5168 25.576 27.4656 25.3937 27.3631L16.7227 21.9808C16.6447 21.9295 16.5666 22.0064 16.6186 22.0833L17.1394 23.006C17.478 23.5955 17.9466 24.108 18.5195 24.4669L25.2376 28.619C25.6281 28.8497 26.0969 28.9521 26.5395 28.8497C26.9821 28.7471 27.3728 28.4909 27.6331 28.0808L33.9347 18.2131C34.3252 17.5981 34.2731 16.8291 33.8565 16.2909C33.8044 16.2396 33.7263 16.2396 33.7003 16.2909L33.7003 16.2909Z" id="Shape" fill="#FFFFFF" stroke="none" class="DxJlESHt_4"></path>
          <path d="M28.4668 14.7272L30.9925 16.2907C31.4351 16.5469 32.0081 16.4445 32.2944 16.0087L33.3361 14.5222C33.3881 14.471 33.3621 14.394 33.3361 14.3428L30.7322 11.2672C30.6541 11.1903 30.5238 11.1903 30.4718 11.2928L28.4407 14.5222C28.3886 14.5734 28.3886 14.676 28.4668 14.7272L28.4668 14.7272Z" id="Shape" fill="#FFFFFF" stroke="none" class="DxJlESHt_5"></path>
          <path d="M30.3155 17.3921L29.8988 17.1358L27.7636 15.8287C27.7115 15.803 27.5171 15.7166 27.465 15.7934L26.9548 16.6873C26.7725 16.9436 26.5351 17.135 26.3529 17.2888C25.9883 17.5964 25.815 17.469 25.3985 17.469C25.034 17.469 24.5869 17.674 24.1442 17.469C24.0661 17.4177 24.0541 17.3401 23.95 17.2888L22.6368 16.4222C22.5848 16.3967 22.5067 16.3967 22.4546 16.4478C22.3504 16.5761 22.2463 16.7042 22.1421 16.8066C21.8297 17.1142 21.3914 17.3153 20.9748 17.469C20.5842 17.5972 20.2158 17.6483 19.747 17.6227L14.4211 17.6493C14.2909 17.6493 14.1833 17.9313 14.2614 18.0338L14.5738 18.6233C14.9124 19.2129 15.3811 19.7254 15.954 20.0842L25.8107 26.055C25.8889 26.1063 25.993 26.0806 26.0191 26.0038L30.8623 18.3661C31.0967 17.9815 30.8884 17.751 30.6019 17.5716C30.4977 17.4946 30.3936 17.4433 30.3155 17.3921L30.3155 17.3921Z" id="Shape" fill="#036C90" stroke="none" class="DxJlESHt_6"></path>
          <path d="M11.9843 10.1136L16.3068 10.9851C16.3329 10.9851 16.385 10.9851 16.385 10.9594L20.0824 4.93637C20.1345 4.85949 20.0824 4.73133 19.9784 4.70571L16.0204 3.62924C15.9422 3.60361 15.8901 3.62924 15.8381 3.70613L11.9323 10.0111C11.8802 10.0624 11.9062 10.1136 11.9843 10.1136L11.9843 10.1136Z" id="Shape" fill="#FFFFFF" stroke="none" class="DxJlESHt_7"></path>
          <path d="M23.1286 12.7534C23.1286 13.2403 23.1025 14.6244 23.1025 15.2651C23.1025 15.2908 23.1286 15.3164 23.1286 15.3164L24.5086 16.1622C25.394 16.6236 25.6022 16.4185 25.9147 15.9572L29.5862 10.1391C29.6123 10.0879 29.6123 10.011 29.5602 9.95973L27.0083 7.0379C26.9303 6.96101 26.8001 6.96101 26.748 7.06353L23.1546 12.7278L23.1286 12.7534L23.1286 12.7534Z" id="Shape" fill="#FFFFFF" stroke="none" class="DxJlESHt_8"></path>
          <path d="M17.8432 11.3183C17.8432 11.3183 21.4106 12.036 21.8793 12.1384C21.9053 12.1384 21.9313 12.1384 21.9574 12.1128L25.6289 6.37169C25.681 6.26917 25.6289 6.16665 25.5247 6.14102L21.6188 5.14145C21.5408 5.11582 21.4887 5.14145 21.4366 5.21834L17.7912 11.1901C17.7651 11.2414 17.7912 11.3183 17.8432 11.3183L17.8432 11.3183Z" id="Shape" fill="#FFFFFF" stroke="none" class="DxJlESHt_9"></path>
          <path d="M24.5095 29.9512C24.5355 29.8743 24.5095 29.8231 24.4574 29.7718C23.6762 29.2848 19.3798 26.5936 17.479 25.389C16.9061 25.0302 16.4373 24.5177 16.0989 23.9282L13.1044 18.4946L12.87 18.0845C12.7398 17.8539 12.7137 17.5975 12.7398 17.3668C12.7658 17.2387 12.7919 17.085 12.87 16.9824C13.0523 16.6749 13.3647 16.4954 13.7553 16.4954L19.6142 16.4954L19.7183 16.4954C19.7444 16.4954 19.7965 16.4954 19.8225 16.4954C20.0568 16.4954 20.2651 16.4698 20.4474 16.4186C20.7338 16.3416 20.9682 16.2392 21.1765 16.0341C21.5671 15.6497 21.8014 15.0346 21.8014 14.3425L21.8014 14.2657C21.8014 14.2144 21.8014 14.1887 21.8014 14.1375C21.8014 13.9324 21.8014 13.753 21.8014 13.5993C21.8014 13.5223 21.7494 13.471 21.6973 13.471L11.1514 11.2925C11.1254 11.2925 11.0994 11.3182 11.0733 11.3438L7.14141 17.4694C6.98517 17.7001 6.98517 18.0076 7.11536 18.2639C8.13089 20.1605 12.9481 28.9773 13.0263 29.1567C13.1565 29.4387 12.9481 33.6676 12.9481 34.3339L12.9481 34.539C12.9481 34.6159 13.0002 34.6672 13.0783 34.6672L24.6137 34.6672C24.6918 34.6672 24.7439 34.6159 24.7439 34.539C24.7699 34.2826 24.3793 30.31 24.5095 29.9512L24.5095 29.9512Z" id="Shape" fill="#FFFFFF" stroke="none" class="DxJlESHt_10"></path>
          <path d="M110.777 34.2827L110.777 26.5425C110.777 26.3887 110.829 26.2862 111.011 26.2862L113.85 26.2862C114.084 26.2862 114.162 26.3631 114.214 26.4913L116.271 31.7198C116.297 31.7967 116.324 31.8223 116.375 31.8223C116.454 31.8223 116.454 31.7711 116.454 31.6941L116.454 26.5425C116.454 26.3631 116.505 26.2862 116.688 26.2862L118.12 26.2862C118.276 26.2862 118.354 26.3631 118.354 26.5425L118.354 34.1546C118.354 34.411 118.303 34.4622 118.042 34.4622L115.568 34.4622C115.177 34.4622 115.047 34.411 114.865 33.9496L112.86 29.1312C112.834 29.0542 112.808 29.0286 112.756 29.0286C112.704 29.0286 112.678 29.0542 112.678 29.1568L112.678 34.2572C112.678 34.411 112.626 34.4622 112.443 34.4622L110.985 34.4622C110.855 34.4878 110.777 34.411 110.777 34.2827L110.777 34.2827Z" id="Shape" fill="#000000" stroke="#FFFFFF" stroke-linejoin="round" stroke-linecap="round" stroke-miterlimit="0" stroke-dasharray="100" stroke-dashoffset="100" stroke-width="0.5" class="DxJlESHt_11"></path>
          <path d="M100.83 30.4129C100.83 27.9268 102.158 26.0815 105.126 26.0815C107.939 26.0815 109.423 27.7987 109.423 30.3873C109.423 32.8478 108.069 34.6419 105.126 34.6419C102.314 34.6675 100.83 32.9759 100.83 30.4129L100.83 30.4129ZM106.871 30.4129C106.871 28.6188 106.272 27.8243 105.126 27.8243C104.007 27.8243 103.382 28.5932 103.382 30.4386C103.382 32.1302 103.954 32.9504 105.1 32.9504C106.272 32.9504 106.871 32.1302 106.871 30.4129L106.871 30.4129Z" id="Shape" fill="#000000" fillrule="evenodd" stroke="#FFFFFF" stroke-linejoin="round" stroke-linecap="round" stroke-miterlimit="0" stroke-dasharray="100" stroke-dashoffset="100" stroke-width="0.5" class="DxJlESHt_12"></path>
          <path d="M96.9761 34.2827L96.9761 26.5169C96.9761 26.3631 97.0543 26.2862 97.2104 26.2862L99.2416 26.2862C99.3978 26.2862 99.476 26.3631 99.476 26.5169L99.476 34.2827C99.476 34.4366 99.3718 34.4878 99.2416 34.4878L97.2104 34.4878C97.0543 34.4878 96.9761 34.411 96.9761 34.2827L96.9761 34.2827Z" id="Shape" fill="#000000" stroke="#FFFFFF" stroke-linejoin="round" stroke-linecap="round" stroke-miterlimit="0" stroke-dasharray="100" stroke-dashoffset="100" stroke-width="0.5" class="DxJlESHt_13"></path>
          <path d="M90.961 34.2833L90.961 28.2089C90.961 28.1065 90.9089 28.0552 90.8308 28.0552L88.982 28.0552C88.8258 28.0552 88.7477 27.9783 88.7477 27.8245L88.7477 26.4918C88.7477 26.3379 88.7998 26.2611 88.982 26.2611L95.4657 26.2611C95.622 26.2611 95.7001 26.3379 95.7001 26.4918L95.7001 27.8245C95.7001 27.9783 95.648 28.0552 95.4657 28.0552L93.617 28.0552C93.5128 28.0552 93.4607 28.1065 93.4607 28.2089L93.4607 34.2833C93.4607 34.437 93.3826 34.4883 93.2525 34.4883L91.1953 34.4883C91.0391 34.4883 90.961 34.4114 90.961 34.2833L90.961 34.2833Z" id="Shape" fill="#000000" stroke="#FFFFFF" stroke-linejoin="round" stroke-linecap="round" stroke-miterlimit="0" stroke-dasharray="100" stroke-dashoffset="100" stroke-width="0.5" class="DxJlESHt_14"></path>
          <path d="M79.9724 31.4634L79.9724 26.5169C79.9724 26.3887 80.0244 26.2862 80.2067 26.2862L82.2117 26.2862C82.368 26.2862 82.4201 26.3887 82.4201 26.5169L82.4201 31.1303C82.4201 32.1811 82.7325 32.8474 83.8783 32.8474C84.9719 32.8474 85.2844 32.2324 85.2844 31.2329L85.2844 26.5425C85.2844 26.4143 85.3365 26.3119 85.4926 26.3119L87.2633 26.3119C87.4196 26.3119 87.4717 26.4143 87.4717 26.5425L87.4717 31.4634C87.4717 33.6933 86.2998 34.7185 83.6439 34.7185C81.0921 34.6673 79.9724 33.6933 79.9724 31.4634L79.9724 31.4634Z" id="Shape" fill="#000000" stroke="#FFFFFF" stroke-linejoin="round" stroke-linecap="round" stroke-miterlimit="0" stroke-dasharray="100" stroke-dashoffset="100" stroke-width="0.5" class="DxJlESHt_15"></path>
          <path d="M73.6449 34.232L73.6449 26.4918C73.6449 26.3636 73.697 26.2611 73.8793 26.2611L75.9363 26.2611C76.0926 26.2611 76.1446 26.3379 76.1446 26.4918L76.1446 32.5661C76.1446 32.6942 76.1967 32.7199 76.3269 32.7199L78.6965 32.7199C78.8527 32.7199 78.9048 32.7967 78.9048 32.9505L78.9048 34.232C78.9048 34.3602 78.8527 34.437 78.6965 34.437L73.8793 34.437C73.723 34.4883 73.6449 34.4114 73.6449 34.232L73.6449 34.232Z" id="Shape" fill="#000000" stroke="#FFFFFF" stroke-linejoin="round" stroke-linecap="round" stroke-miterlimit="0" stroke-dasharray="100" stroke-dashoffset="100" stroke-width="0.5" class="DxJlESHt_16"></path>
          <path d="M63.6978 30.4129C63.6978 27.9268 65.0258 26.0815 67.9943 26.0815C70.8065 26.0815 72.2907 27.7987 72.2907 30.3873C72.2907 32.8478 70.9367 34.6419 67.9943 34.6419C65.156 34.6675 63.6978 32.9759 63.6978 30.4129L63.6978 30.4129ZM69.7128 30.4129C69.7128 28.6188 69.1139 27.8243 67.9682 27.8243C66.8485 27.8243 66.2235 28.5932 66.2235 30.4386C66.2235 32.1302 66.7964 32.9504 67.9422 32.9504C69.1139 32.9504 69.7128 32.1302 69.7128 30.4129L69.7128 30.4129Z" id="Shape" fill="#000000" fillrule="evenodd" stroke="#FFFFFF" stroke-linejoin="round" stroke-linecap="round" stroke-miterlimit="0" stroke-dasharray="100" stroke-dashoffset="100" stroke-width="0.5" class="DxJlESHt_17"></path>
          <path d="M57.3966 34.0265L55.0531 26.645C55.027 26.5682 55.027 26.4913 55.027 26.44C55.027 26.3375 55.0791 26.2862 55.2354 26.2862L57.2924 26.2862C57.3966 26.2862 57.5007 26.3119 57.5267 26.44L59.063 32.3093C59.0891 32.4375 59.1151 32.4886 59.1932 32.4886C59.2714 32.4886 59.2974 32.463 59.3495 32.3093L60.964 26.4656C60.99 26.3631 61.0421 26.2862 61.1982 26.2862L63.0471 26.2862C63.1512 26.2862 63.2032 26.3631 63.2032 26.44C63.2032 26.5169 63.1773 26.6194 63.1512 26.6707L60.7296 34.0009C60.6254 34.334 60.5212 34.4621 60.1828 34.4621L57.9173 34.4621C57.6569 34.4878 57.5267 34.411 57.3966 34.0265L57.3966 34.0265Z" id="Shape" fill="#000000" stroke="#FFFFFF" stroke-linejoin="round" stroke-linecap="round" stroke-miterlimit="0" stroke-dasharray="100" stroke-dashoffset="100" stroke-width="0.5" class="DxJlESHt_18"></path>
          <path d="M47.9438 34.2827L47.9438 26.5169C47.9438 26.3375 47.9959 26.2862 48.1782 26.2862L53.334 26.2862C53.4902 26.2862 53.5944 26.3375 53.5944 26.5169L53.5944 27.7983C53.5944 27.9778 53.5163 28.029 53.334 28.029L50.5478 28.029C50.4697 28.029 50.4176 28.0803 50.4176 28.1829L50.4176 29.3106C50.4176 29.3875 50.4697 29.4387 50.5478 29.4387L52.709 29.4387C52.8653 29.4387 52.9434 29.49 52.9434 29.6437L52.9434 30.9252C52.9434 31.079 52.8653 31.1303 52.709 31.1303L50.5478 31.1303C50.4697 31.1303 50.4176 31.1816 50.4176 31.284L50.4176 32.5656C50.4176 32.6937 50.4697 32.745 50.5738 32.745L53.6204 32.745C53.8026 32.745 53.8287 32.8219 53.8287 32.9757L53.8287 34.2827C53.8287 34.4366 53.8026 34.4878 53.6204 34.4878L48.1782 34.4878C48.022 34.4878 47.9438 34.411 47.9438 34.2827L47.9438 34.2827Z" id="Shape" fill="#000000" stroke="#FFFFFF" stroke-linejoin="round" stroke-linecap="round" stroke-miterlimit="0" stroke-dasharray="100" stroke-dashoffset="100" stroke-width="0.5" class="DxJlESHt_19"></path>
          <path d="M39.5339 34.2827L39.5339 26.5169C39.5339 26.3631 39.586 26.2862 39.7423 26.2862L42.8931 26.2862C45.1585 26.2862 46.0698 26.8501 46.0698 28.7211C46.0698 29.7719 45.4969 30.5921 44.7157 30.874C44.6116 30.8996 44.5595 30.9509 44.5595 31.0022C44.5595 31.0277 44.5595 31.0534 44.6116 31.1303L46.4083 34.1033C46.5125 34.2316 46.5125 34.3084 46.5125 34.3597C46.5125 34.4366 46.4604 34.4878 46.3562 34.4878L44.1169 34.4878C43.9606 34.4878 43.8564 34.4366 43.8043 34.3084L42.2942 31.5147C42.2421 31.4379 42.216 31.3866 42.1119 31.3866L42.0337 31.3866C41.9556 31.3866 41.9296 31.4123 41.9296 31.4891L41.9296 34.2572C41.9296 34.411 41.8514 34.4621 41.6952 34.4621L39.7683 34.4621C39.586 34.4878 39.5339 34.411 39.5339 34.2827L39.5339 34.2827ZM42.5545 29.8744C43.1794 29.8744 43.6221 29.5669 43.6221 28.7467C43.6221 28.029 43.3096 27.6702 42.5285 27.6702L42.1119 27.6702C42.0077 27.6702 41.9556 27.7215 41.9556 27.8496L41.9556 29.7206C41.9556 29.8231 42.0077 29.8744 42.0858 29.8744L42.5545 29.8744L42.5545 29.8744Z" id="Shape" fill="#000000" fillrule="evenodd" stroke="#FFFFFF" stroke-linejoin="round" stroke-linecap="round" stroke-miterlimit="0" stroke-dasharray="100" stroke-dashoffset="100" stroke-width="0.5" class="DxJlESHt_20"></path>
          <path d="M102.288 23.1849C101.481 22.9287 101.038 22.7236 101.038 22.0572C101.038 21.4678 101.741 18.4947 101.871 17.9308C102.002 17.3926 102.21 17.2132 102.574 17.2132C103.277 17.2132 104.996 18.7766 107.939 18.7766C109.657 18.7766 110.308 18.2384 110.308 17.2901C110.308 16.1367 109.397 15.7266 107.756 14.5989L107.183 14.1632C105.022 12.5998 103.72 11.1388 103.72 8.11448C103.72 3.32167 107.131 0.88681 113.511 0.88681C115.803 0.88681 118.433 1.22 120.021 1.91202C120.62 2.16831 120.75 2.39899 120.75 2.93721C120.75 3.37292 120.099 6.11534 119.813 7.06365C119.708 7.39684 119.604 7.7044 119.109 7.7044C118.224 7.7044 116.713 6.1666 114.006 6.1666C112.756 6.1666 111.922 6.39727 111.922 7.26869C111.922 8.31953 113.251 8.85775 114.917 10.088L115.698 10.6775C117.782 12.2153 118.693 13.7531 118.693 16.4186C118.693 21.2884 115.62 24.0307 108.147 24.0307C105.517 24.0307 103.876 23.6976 102.288 23.1849L102.288 23.1849Z" id="Shape" fill="#F60009" stroke="#FFFFFF" stroke-linejoin="round" stroke-linecap="round" stroke-miterlimit="0" stroke-dasharray="100" stroke-dashoffset="100" stroke-width="2" class="DxJlESHt_21"></path>
          <path d="M84.1652 23.1849C83.358 22.9287 82.9153 22.7236 82.9153 22.0572C82.9153 21.4678 83.6184 18.4947 83.7486 17.9308C83.8788 17.3926 84.0871 17.2132 84.4517 17.2132C85.1547 17.2132 86.8732 18.7766 89.8157 18.7766C91.5343 18.7766 92.1852 18.2384 92.1852 17.2901C92.1852 16.1367 91.2739 15.7266 89.6335 14.5989L89.0605 14.1632C86.8993 12.5998 85.5973 11.1388 85.5973 8.11448C85.5973 3.32167 89.0084 0.88681 95.3881 0.88681C97.6796 0.88681 100.309 1.22 101.898 1.91202C102.497 2.16831 102.627 2.39899 102.627 2.93721C102.627 3.37292 101.976 6.11534 101.69 7.06365C101.585 7.39684 101.481 7.7044 100.987 7.7044C100.101 7.7044 98.5909 6.1666 95.8828 6.1666C94.633 6.1666 93.7997 6.39727 93.7997 7.26869C93.7997 8.31953 95.1277 8.85775 96.7942 10.088L97.5754 10.6775C99.6585 12.2153 100.57 13.7531 100.57 16.4186C100.57 21.2884 97.4973 24.0307 90.024 24.0307C87.368 24.0307 85.7276 23.6976 84.1652 23.1849L84.1652 23.1849Z" id="Shape" fill="#F60009" stroke="#FFFFFF" stroke-linejoin="round" stroke-linecap="round" stroke-miterlimit="0" stroke-dasharray="100" stroke-dashoffset="100" stroke-width="2" class="DxJlESHt_22"></path>
          <path d="M60.6506 15.4959C60.6506 7.37122 65.3117 0.88681 74.6597 0.88681C80.7269 0.88681 84.2161 3.73175 84.2161 9.54977C84.2161 17.2132 79.9717 24.0307 70.4675 24.0307C64.5305 24.0307 60.6506 21.3395 60.6506 15.4959L60.6506 15.4959ZM75.8835 9.72918C75.8835 8.42205 75.5711 6.65357 73.7223 6.65357C70.6498 6.65357 69.1655 11.5233 69.1655 15.0858C69.1655 16.6493 69.504 18.264 71.3007 18.264C74.4774 18.2384 75.8835 13.343 75.8835 9.72918L75.8835 9.72918Z" id="Shape" fill="#F60009" fillrule="evenodd" stroke="#FFFFFF" stroke-linejoin="round" stroke-linecap="round" stroke-miterlimit="0" stroke-dasharray="100" stroke-dashoffset="100" stroke-width="2" class="DxJlESHt_23"></path>
          <path d="M38.2834 22.9284C38.2834 22.7233 38.4397 22.0057 38.596 21.365L42.8403 1.98867C42.9445 1.52733 43.1789 1.39917 43.6736 1.39917L53.6465 1.39917C58.3336 1.39917 60.4949 2.75757 60.4949 6.1151C60.4949 10.2415 57.5525 11.4205 55.5475 11.8562C55.287 11.9331 55.1308 11.9844 55.1308 12.1125C55.1308 12.2663 55.2349 12.3689 55.5735 12.4457C56.8234 12.702 59.3232 13.6503 59.3232 16.7516C59.3232 21.4419 55.4433 23.5178 49.4282 23.5178L39.0646 23.5178C38.5439 23.5178 38.2834 23.3384 38.2834 22.9284L38.2834 22.9284ZM48.1263 19.2889C50.1573 19.2889 51.251 18.2381 51.251 16.5209C51.251 14.9575 50.3657 14.4193 49.1938 14.4193L48.3867 14.4193C48.0742 14.4193 47.944 14.4961 47.8919 14.8549L47.1628 18.2125C47.0847 18.5457 47.0326 18.802 47.0326 18.9814C47.0326 19.1864 47.1368 19.2889 47.4753 19.2889L48.1263 19.2889L48.1263 19.2889ZM50.1834 10.0365C51.8239 10.0365 52.8134 9.01129 52.8134 7.34534C52.8134 5.8588 51.9801 5.62813 50.9645 5.62813L50.4698 5.62813C50.0531 5.62813 49.897 5.83317 49.7928 6.26888L49.2459 8.62684C49.1158 9.16508 49.0377 9.49826 49.0377 9.67768C49.0377 9.90834 49.1679 10.0365 49.6105 10.0365L50.1834 10.0365L50.1834 10.0365Z" id="Shape" fill="#F60009" fillrule="evenodd" stroke="#FFFFFF" stroke-linejoin="round" stroke-linecap="round" stroke-miterlimit="0" stroke-dasharray="100" stroke-dashoffset="100" stroke-width="2" class="DxJlESHt_24"></path>
        </g>
      <style data-made-with="vivus-instant">.DxJlESHt_0{stroke-dasharray:11 13;stroke-dashoffset:12;animation:DxJlESHt_draw_0 1200ms ease-in-out 0ms infinite,DxJlESHt_fade 1200ms linear 0ms infinite;}.DxJlESHt_1{stroke-dasharray:456 458;stroke-dashoffset:457;animation:DxJlESHt_draw_1 1200ms ease-in-out 0ms infinite,DxJlESHt_fade 1200ms linear 0ms infinite;}.DxJlESHt_2{stroke-dasharray:39 41;stroke-dashoffset:40;animation:DxJlESHt_draw_2 1200ms ease-in-out 0ms infinite,DxJlESHt_fade 1200ms linear 0ms infinite;}.DxJlESHt_3{stroke-dasharray:51 53;stroke-dashoffset:52;animation:DxJlESHt_draw_3 1200ms ease-in-out 0ms infinite,DxJlESHt_fade 1200ms linear 0ms infinite;}.DxJlESHt_4{stroke-dasharray:53 55;stroke-dashoffset:54;animation:DxJlESHt_draw_4 1200ms ease-in-out 0ms infinite,DxJlESHt_fade 1200ms linear 0ms infinite;}.DxJlESHt_5{stroke-dasharray:15 17;stroke-dashoffset:16;animation:DxJlESHt_draw_5 1200ms ease-in-out 0ms infinite,DxJlESHt_fade 1200ms linear 0ms infinite;}.DxJlESHt_6{stroke-dasharray:44 46;stroke-dashoffset:45;animation:DxJlESHt_draw_6 1200ms ease-in-out 0ms infinite,DxJlESHt_fade 1200ms linear 0ms infinite;}.DxJlESHt_7{stroke-dasharray:24 26;stroke-dashoffset:25;animation:DxJlESHt_draw_7 1200ms ease-in-out 0ms infinite,DxJlESHt_fade 1200ms linear 0ms infinite;}.DxJlESHt_8{stroke-dasharray:24 26;stroke-dashoffset:25;animation:DxJlESHt_draw_8 1200ms ease-in-out 0ms infinite,DxJlESHt_fade 1200ms linear 0ms infinite;}.DxJlESHt_9{stroke-dasharray:23 25;stroke-dashoffset:24;animation:DxJlESHt_draw_9 1200ms ease-in-out 0ms infinite,DxJlESHt_fade 1200ms linear 0ms infinite;}.DxJlESHt_10{stroke-dasharray:83 85;stroke-dashoffset:84;animation:DxJlESHt_draw_10 1200ms ease-in-out 0ms infinite,DxJlESHt_fade 1200ms linear 0ms infinite;}.DxJlESHt_11{stroke-dasharray:50 52;stroke-dashoffset:51;animation:DxJlESHt_draw_11 1200ms ease-in-out 0ms infinite,DxJlESHt_fade 1200ms linear 0ms infinite;}.DxJlESHt_12{stroke-dasharray:42 44;stroke-dashoffset:43;animation:DxJlESHt_draw_12 1200ms ease-in-out 0ms infinite,DxJlESHt_fade 1200ms linear 0ms infinite;}.DxJlESHt_13{stroke-dasharray:22 24;stroke-dashoffset:23;animation:DxJlESHt_draw_13 1200ms ease-in-out 0ms infinite,DxJlESHt_fade 1200ms linear 0ms infinite;}.DxJlESHt_14{stroke-dasharray:30 32;stroke-dashoffset:31;animation:DxJlESHt_draw_14 1200ms ease-in-out 0ms infinite,DxJlESHt_fade 1200ms linear 0ms infinite;}.DxJlESHt_15{stroke-dasharray:41 43;stroke-dashoffset:42;animation:DxJlESHt_draw_15 1200ms ease-in-out 0ms infinite,DxJlESHt_fade 1200ms linear 0ms infinite;}.DxJlESHt_16{stroke-dasharray:27 29;stroke-dashoffset:28;animation:DxJlESHt_draw_16 1200ms ease-in-out 0ms infinite,DxJlESHt_fade 1200ms linear 0ms infinite;}.DxJlESHt_17{stroke-dasharray:42 44;stroke-dashoffset:43;animation:DxJlESHt_draw_17 1200ms ease-in-out 0ms infinite,DxJlESHt_fade 1200ms linear 0ms infinite;}.DxJlESHt_18{stroke-dasharray:38 40;stroke-dashoffset:39;animation:DxJlESHt_draw_18 1200ms ease-in-out 0ms infinite,DxJlESHt_fade 1200ms linear 0ms infinite;}.DxJlESHt_19{stroke-dasharray:39 41;stroke-dashoffset:40;animation:DxJlESHt_draw_19 1200ms ease-in-out 0ms infinite,DxJlESHt_fade 1200ms linear 0ms infinite;}.DxJlESHt_20{stroke-dasharray:42 44;stroke-dashoffset:43;animation:DxJlESHt_draw_20 1200ms ease-in-out 0ms infinite,DxJlESHt_fade 1200ms linear 0ms infinite;}.DxJlESHt_21{stroke-dasharray:96 98;stroke-dashoffset:97;animation:DxJlESHt_draw_21 1200ms ease-in-out 0ms infinite,DxJlESHt_fade 1200ms linear 0ms infinite;}.DxJlESHt_22{stroke-dasharray:96 98;stroke-dashoffset:97;animation:DxJlESHt_draw_22 1200ms ease-in-out 0ms infinite,DxJlESHt_fade 1200ms linear 0ms infinite;}.DxJlESHt_23{stroke-dasharray:105 107;stroke-dashoffset:106;animation:DxJlESHt_draw_23 1200ms ease-in-out 0ms infinite,DxJlESHt_fade 1200ms linear 0ms infinite;}.DxJlESHt_24{stroke-dasharray:112 114;stroke-dashoffset:113;animation:DxJlESHt_draw_24 1200ms ease-in-out 0ms infinite,DxJlESHt_fade 1200ms linear 0ms infinite;}@keyframes DxJlESHt_draw{100%{stroke-dashoffset:0;}}@keyframes DxJlESHt_fade{0%{stroke-opacity:1;}100%{stroke-opacity:1;}100%{stroke-opacity:0;}}@keyframes DxJlESHt_draw_0{0%{stroke-dashoffset: 12}100%{ stroke-dashoffset: 0;}100%{ stroke-dashoffset: 0;}}@keyframes DxJlESHt_draw_1{0%{stroke-dashoffset: 457}100%{ stroke-dashoffset: 0;}100%{ stroke-dashoffset: 0;}}@keyframes DxJlESHt_draw_2{0%{stroke-dashoffset: 40}100%{ stroke-dashoffset: 0;}100%{ stroke-dashoffset: 0;}}@keyframes DxJlESHt_draw_3{0%{stroke-dashoffset: 52}100%{ stroke-dashoffset: 0;}100%{ stroke-dashoffset: 0;}}@keyframes DxJlESHt_draw_4{0%{stroke-dashoffset: 54}100%{ stroke-dashoffset: 0;}100%{ stroke-dashoffset: 0;}}@keyframes DxJlESHt_draw_5{0%{stroke-dashoffset: 16}100%{ stroke-dashoffset: 0;}100%{ stroke-dashoffset: 0;}}@keyframes DxJlESHt_draw_6{0%{stroke-dashoffset: 45}100%{ stroke-dashoffset: 0;}100%{ stroke-dashoffset: 0;}}@keyframes DxJlESHt_draw_7{0%{stroke-dashoffset: 25}100%{ stroke-dashoffset: 0;}100%{ stroke-dashoffset: 0;}}@keyframes DxJlESHt_draw_8{0%{stroke-dashoffset: 25}100%{ stroke-dashoffset: 0;}100%{ stroke-dashoffset: 0;}}@keyframes DxJlESHt_draw_9{0%{stroke-dashoffset: 24}100%{ stroke-dashoffset: 0;}100%{ stroke-dashoffset: 0;}}@keyframes DxJlESHt_draw_10{0%{stroke-dashoffset: 84}100%{ stroke-dashoffset: 0;}100%{ stroke-dashoffset: 0;}}@keyframes DxJlESHt_draw_11{0%{stroke-dashoffset: 51}100%{ stroke-dashoffset: 0;}100%{ stroke-dashoffset: 0;}}@keyframes DxJlESHt_draw_12{0%{stroke-dashoffset: 43}100%{ stroke-dashoffset: 0;}100%{ stroke-dashoffset: 0;}}@keyframes DxJlESHt_draw_13{0%{stroke-dashoffset: 23}100%{ stroke-dashoffset: 0;}100%{ stroke-dashoffset: 0;}}@keyframes DxJlESHt_draw_14{0%{stroke-dashoffset: 31}100%{ stroke-dashoffset: 0;}100%{ stroke-dashoffset: 0;}}@keyframes DxJlESHt_draw_15{0%{stroke-dashoffset: 42}100%{ stroke-dashoffset: 0;}100%{ stroke-dashoffset: 0;}}@keyframes DxJlESHt_draw_16{0%{stroke-dashoffset: 28}100%{ stroke-dashoffset: 0;}100%{ stroke-dashoffset: 0;}}@keyframes DxJlESHt_draw_17{0%{stroke-dashoffset: 43}100%{ stroke-dashoffset: 0;}100%{ stroke-dashoffset: 0;}}@keyframes DxJlESHt_draw_18{0%{stroke-dashoffset: 39}100%{ stroke-dashoffset: 0;}100%{ stroke-dashoffset: 0;}}@keyframes DxJlESHt_draw_19{0%{stroke-dashoffset: 40}100%{ stroke-dashoffset: 0;}100%{ stroke-dashoffset: 0;}}@keyframes DxJlESHt_draw_20{0%{stroke-dashoffset: 43}100%{ stroke-dashoffset: 0;}100%{ stroke-dashoffset: 0;}}@keyframes DxJlESHt_draw_21{0%{stroke-dashoffset: 97}100%{ stroke-dashoffset: 0;}100%{ stroke-dashoffset: 0;}}@keyframes DxJlESHt_draw_22{0%{stroke-dashoffset: 97}100%{ stroke-dashoffset: 0;}100%{ stroke-dashoffset: 0;}}@keyframes DxJlESHt_draw_23{0%{stroke-dashoffset: 106}100%{ stroke-dashoffset: 0;}100%{ stroke-dashoffset: 0;}}@keyframes DxJlESHt_draw_24{0%{stroke-dashoffset: 113}100%{ stroke-dashoffset: 0;}100%{ stroke-dashoffset: 0;}}</style></svg>
